<svg width="24" height="24" viewBox="0 0 24 24" fill="none" xmlns="http://www.w3.org/2000/svg">
<path fill-rule="evenodd" clip-rule="evenodd" d="M4.875 2.25C4.57663 2.25 4.29048 2.36853 4.0795 2.5795C3.86853 2.79048 3.75 3.07663 3.75 3.375V20.625C3.75 21.246 4.254 21.75 4.875 21.75H10.875C11.1734 21.75 11.4595 21.8685 11.6705 22.0795C11.8815 22.2905 12 22.5766 12 22.875C12 23.1734 11.8815 23.4595 11.6705 23.6705C11.4595 23.8815 11.1734 24 10.875 24H4.875C3.97989 24 3.12145 23.6444 2.48851 23.0115C1.85558 22.3786 1.5 21.5201 1.5 20.625V3.375C1.5 2.47989 1.85558 1.62145 2.48851 0.988515C3.12145 0.355579 3.97989 0 4.875 0H14.3145C14.811 0 15.2895 0.198 15.6405 0.549L21.951 6.8595C22.302 7.212 22.5 7.689 22.5 8.1855V10.125C22.5 10.4234 22.3815 10.7095 22.1705 10.9205C21.9595 11.1315 21.6734 11.25 21.375 11.25C21.0766 11.25 20.7905 11.1315 20.5795 10.9205C20.3685 10.7095 20.25 10.4234 20.25 10.125V9H14.625C14.3266 9 14.0405 8.88147 13.8295 8.6705C13.6185 8.45952 13.5 8.17337 13.5 7.875V2.25H4.875ZM15.75 3.84L18.66 6.75H15.75V3.84Z" fill="white"/>
<path d="M18.0177 17.4432H19.1621L18.9785 18.5568H17.8341L18.0177 17.4432Z" fill="white"/>
<path fill-rule="evenodd" clip-rule="evenodd" d="M18 24C21.3137 24 24 21.3137 24 18C24 14.6863 21.3137 12 18 12C14.6863 12 12 14.6863 12 18C12 21.3137 14.6863 24 18 24ZM18.4444 21.7963C18.436 21.8471 18.4505 21.899 18.484 21.9382C18.5174 21.9774 18.5665 22 18.6182 22H19.8194C19.9057 22 19.9793 21.9378 19.9932 21.8531L20.2819 20.1026H21.182C21.2681 20.1026 21.3417 20.0405 21.3558 19.9559L21.5547 18.7607C21.5632 18.7099 21.5487 18.658 21.5153 18.6187C21.4818 18.5794 21.4327 18.5568 21.3809 18.5568H20.5367L20.7203 17.4432H21.6211C21.7071 17.4432 21.7805 17.3815 21.7948 17.2971L21.9975 16.1019C22.0062 16.051 21.9918 15.9989 21.9584 15.9595C21.9249 15.9201 21.8757 15.8974 21.8238 15.8974H20.9752L21.2545 14.2037C21.2628 14.1529 21.2484 14.101 21.2149 14.0618C21.1814 14.0226 21.1323 14 21.0806 14H19.8795C19.7932 14 19.7196 14.0622 19.7056 14.1469L19.417 15.8974H18.2726L18.5519 14.2037C18.5602 14.1529 18.5458 14.101 18.5123 14.0618C18.4788 14.0226 18.4297 14 18.378 14H17.1768C17.0906 14 17.017 14.0622 17.003 14.1469L16.7144 15.8974H15.818C15.7321 15.8974 15.6586 15.9592 15.6443 16.0435L15.4416 17.2388C15.433 17.2896 15.4473 17.3417 15.4808 17.3811C15.5143 17.4205 15.5635 17.4432 15.6153 17.4432H16.4595L16.2759 18.5568H15.3751C15.2889 18.5568 15.2154 18.6188 15.2013 18.7034L15.0024 19.8986C14.9939 19.9495 15.0083 20.0014 15.0418 20.0407C15.0753 20.0799 15.1244 20.1026 15.1762 20.1026H16.021L15.7418 21.7963C15.7334 21.8471 15.7479 21.899 15.7814 21.9382C15.8148 21.9774 15.8639 22 15.9156 22H17.1168C17.2031 22 17.2767 21.9378 17.2906 21.8531L17.5793 20.1026H18.7237L18.4444 21.7963Z" fill="white"/>
</svg>
